<?xml version="1.0" encoding="UTF-8" standalone="no"?>
<!DOCTYPE svg PUBLIC "-//W3C//DTD SVG 1.1//EN" "http://www.w3.org/Graphics/SVG/1.1/DTD/svg11.dtd">
<svg width="100%" height="100%" viewBox="0 0 119 119" version="1.1" xmlns="http://www.w3.org/2000/svg" xmlns:xlink="http://www.w3.org/1999/xlink" xml:space="preserve" xmlns:serif="http://www.serif.com/" style="fill-rule:evenodd;clip-rule:evenodd;stroke-linecap:round;stroke-linejoin:round;">
    <g transform="matrix(1,0,0,1,-2688,0)">
        <g id="Artboard2" transform="matrix(0.047619,0,0,0.03367,2559.97,0)">
            <rect x="2688.65" y="0" width="2480.32" height="3507.87" style="fill:none;"/>
            <clipPath id="_clip1">
                <rect x="2688.65" y="0" width="2480.32" height="3507.87"/>
            </clipPath>
            <g clip-path="url(#_clip1)">
                <g transform="matrix(96.6567,0,0,136.7,-76607,-123107)">
                    <path d="M837.627,902.293C838.41,902.293 839.046,902.929 839.046,903.712C839.046,904.495 838.41,905.13 837.627,905.13C837.627,905.13 832.161,905.13 832.161,905.13L832.161,917.127C832.161,917.911 831.526,918.546 830.743,918.546L822.976,918.546C822.193,918.546 821.557,917.91 821.557,917.127C821.557,916.344 822.193,915.708 822.976,915.708C822.976,915.708 829.324,915.708 829.324,915.708L829.324,903.712C829.324,902.928 829.959,902.293 830.743,902.293L837.627,902.293Z" style="fill:rgb(84,84,84);"/>
                </g>
                <g transform="matrix(96.6567,0,0,136.7,-75930.4,-122438)">
                    <path d="M837.627,902.293C838.41,902.293 839.046,902.929 839.046,903.712C839.046,904.495 838.41,905.13 837.627,905.13L836.105,905.13C835.059,905.13 834.056,905.546 833.316,906.285C832.577,907.025 832.161,908.028 832.161,909.074L832.161,911.765C832.161,913.563 831.447,915.288 830.175,916.56C828.904,917.831 827.179,918.546 825.381,918.546L822.976,918.546C822.193,918.546 821.557,917.91 821.557,917.127C821.557,916.344 822.193,915.708 822.976,915.708L825.381,915.708C826.427,915.708 827.43,915.293 828.169,914.553C828.909,913.814 829.324,912.811 829.324,911.765L829.324,909.073C829.324,907.275 830.038,905.55 831.31,904.279C832.582,903.007 834.306,902.293 836.105,902.293L837.627,902.293Z" style="fill:rgb(26,129,196);"/>
                </g>
                <g id="g2044" transform="matrix(127.623,0,0,136.188,2447.95,172.407)">
                    <g id="g1824" transform="matrix(1.05558,0,0,1.17523,-0.557644,-3.53206)">
                        <path id="path1816" d="M8.034,17.101L10.46,20.101L8.034,23.101" style="fill:none;fill-rule:nonzero;stroke:rgb(255,254,254);stroke-width:3.12px;"/>
                        <path id="path1814" d="M4.218,13.584C3.666,13.584 3.127,13.973 2.831,14.494C2.147,15.698 2.314,17.59 2.387,18.823C2.556,21.65 3.78,22.159 5.13,22.512C6.802,22.95 10.176,21.049 10.176,21.049C10.725,20.994 11.176,20.601 11.176,20.049C11.176,19.497 10.728,19.049 10.176,19.049C10.176,19.049 7.38,18.721 6.161,17.503C5.074,16.416 5.763,16.077 5.513,14.416C5.443,13.952 4.77,13.584 4.218,13.584Z" style="fill:white;fill-rule:nonzero;"/>
                    </g>
                    <g id="g1839">
                        <path id="path2020" d="M4.006,13.438C3.454,13.438 3.216,14.016 3.006,14.438C2.347,15.759 2.2,17.607 2.387,18.823C2.713,20.941 3.978,21.454 5.328,21.808C7,22.245 10.176,21.049 10.176,21.049C10.725,20.994 11.176,20.601 11.176,20.049C11.176,19.497 10.728,19.049 10.176,19.049C10.176,19.049 7.086,18.926 5.868,17.708C4.781,16.621 5,15.5 5.006,14.438C5.008,13.966 4.558,13.438 4.006,13.438Z" style="fill:rgb(191,38,65);fill-rule:nonzero;"/>
                        <path id="polyline1446" d="M8.034,17.101L10.46,20.101L8.034,23.101" style="fill:none;fill-rule:nonzero;stroke:rgb(191,38,65);stroke-width:1.74px;"/>
                    </g>
                </g>
            </g>
        </g>
    </g>
</svg>
